<svg width="29" height="29" viewBox="0 0 29 29" fill="none" xmlns="http://www.w3.org/2000/svg">
<path d="M3.10692 6.21591H1.03564C0.760971 6.21591 0.497552 6.1068 0.303332 5.91258C0.109112 5.71836 0 5.45494 0 5.18027C0 4.9056 0.109112 4.64218 0.303332 4.44796C0.497552 4.25374 0.760971 4.14463 1.03564 4.14463H9.32076V1.03564C9.32076 0.760971 9.42987 0.497552 9.62409 0.303332C9.81831 0.109112 10.0817 0 10.3564 0H18.6415C18.9162 0 19.1796 0.109112 19.3738 0.303332C19.5681 0.497552 19.6772 0.760971 19.6772 1.03564V4.14463H27.9623C28.237 4.14463 28.5004 4.25374 28.6946 4.44796C28.8888 4.64218 28.9979 4.9056 28.9979 5.18027C28.9979 5.45494 28.8888 5.71836 28.6946 5.91258C28.5004 6.1068 28.237 6.21591 27.9623 6.21591H25.891V27.9644C25.891 28.239 25.7819 28.5024 25.5877 28.6967C25.3935 28.8909 25.13 29 24.8554 29H4.14256C3.86789 29 3.60447 28.8909 3.41025 28.6967C3.21603 28.5024 3.10692 28.239 3.10692 27.9644V6.21591ZM17.6059 4.14463V2.07335H11.392V4.14463H17.6059ZM5.1782 26.9287H23.8197V6.21591H5.1782V26.9287ZM11.392 22.7862C11.1174 22.7862 10.854 22.677 10.6597 22.4828C10.4655 22.2886 10.3564 22.0252 10.3564 21.7505V11.3941C10.3564 11.1194 10.4655 10.856 10.6597 10.6618C10.854 10.4676 11.1174 10.3585 11.392 10.3585C11.6667 10.3585 11.9301 10.4676 12.1244 10.6618C12.3186 10.856 12.4277 11.1194 12.4277 11.3941V21.7505C12.4277 22.0252 12.3186 22.2886 12.1244 22.4828C11.9301 22.677 11.6667 22.7862 11.392 22.7862ZM17.6059 22.7862C17.3312 22.7862 17.0678 22.677 16.8736 22.4828C16.6794 22.2886 16.5702 22.0252 16.5702 21.7505V11.3941C16.5702 11.1194 16.6794 10.856 16.8736 10.6618C17.0678 10.4676 17.3312 10.3585 17.6059 10.3585C17.8806 10.3585 18.144 10.4676 18.3382 10.6618C18.5324 10.856 18.6415 11.1194 18.6415 11.3941V21.7505C18.6415 22.0252 18.5324 22.2886 18.3382 22.4828C18.144 22.677 17.8806 22.7862 17.6059 22.7862Z" fill="#EE282A"/>
</svg>
