<svg width="29" height="29" viewBox="0 0 29 29" fill="none" xmlns="http://www.w3.org/2000/svg">
<path fill-rule="evenodd" clip-rule="evenodd" d="M26.2848 1.16366C24.7332 -0.387883 22.2177 -0.387888 20.6661 1.16366L1.91688 19.9129C1.36225 20.4676 0.984199 21.174 0.830379 21.943L0.0529074 25.8304C-0.317755 27.6837 1.31625 29.3178 3.16956 28.9471L7.0569 28.1696C7.82603 28.0158 8.53243 27.6377 9.08705 27.0831L27.8362 8.33383C29.3878 6.78229 29.3878 4.26675 27.8362 2.7152L26.2848 1.16366ZM22.5389 3.03653C23.0562 2.51936 23.8947 2.51936 24.4119 3.03653L25.9634 4.58808C26.4807 5.10526 26.4807 5.94377 25.9634 6.46096L22.4253 9.99901L19.001 6.57458L22.5389 3.03653ZM17.128 8.44747L3.78975 21.7858C3.60488 21.9707 3.47887 22.2061 3.42759 22.4625L2.65012 26.3498L6.53746 25.5723C6.79384 25.5211 7.0293 25.3951 7.21418 25.2102L20.5525 11.8719L17.128 8.44747Z" fill="#0F0F0F"/>
</svg>
