<svg width="157" height="39" viewBox="0 0 157 39" fill="none" xmlns="http://www.w3.org/2000/svg">
<path d="M50.0227 31V7.72727H65.4318V11.7841H54.9432V17.3295H64.4091V21.3864H54.9432V31H50.0227ZM68.3693 31V13.5455H73.0625V16.5909H73.2443C73.5625 15.5076 74.0966 14.6894 74.8466 14.1364C75.5966 13.5758 76.4602 13.2955 77.4375 13.2955C77.6799 13.2955 77.9413 13.3106 78.2216 13.3409C78.5019 13.3712 78.7481 13.4129 78.9602 13.4659V17.7614C78.733 17.6932 78.4186 17.6326 78.017 17.5795C77.6155 17.5265 77.2481 17.5 76.9148 17.5C76.2027 17.5 75.5663 17.6553 75.0057 17.9659C74.4527 18.2689 74.0133 18.6932 73.6875 19.2386C73.3693 19.7841 73.2102 20.4129 73.2102 21.125V31H68.3693Z" fill="#598560"/>
<path d="M89.3494 31.3409C87.5843 31.3409 86.0578 30.9659 84.7699 30.2159C83.4896 29.4583 82.5009 28.4053 81.804 27.0568C81.107 25.7008 80.7585 24.1288 80.7585 22.3409C80.7585 20.5379 81.107 18.9621 81.804 17.6136C82.5009 16.2576 83.4896 15.2045 84.7699 14.4545C86.0578 13.697 87.5843 13.3182 89.3494 13.3182C91.1146 13.3182 92.6373 13.697 93.9176 14.4545C95.2055 15.2045 96.1979 16.2576 96.8949 17.6136C97.5919 18.9621 97.9403 20.5379 97.9403 22.3409C97.9403 24.1288 97.5919 25.7008 96.8949 27.0568C96.1979 28.4053 95.2055 29.4583 93.9176 30.2159C92.6373 30.9659 91.1146 31.3409 89.3494 31.3409ZM89.3722 27.5909C90.1752 27.5909 90.8456 27.3636 91.3835 26.9091C91.9214 26.447 92.3267 25.8182 92.5994 25.0227C92.8797 24.2273 93.0199 23.322 93.0199 22.3068C93.0199 21.2917 92.8797 20.3864 92.5994 19.5909C92.3267 18.7955 91.9214 18.1667 91.3835 17.7045C90.8456 17.2424 90.1752 17.0114 89.3722 17.0114C88.5616 17.0114 87.8797 17.2424 87.3267 17.7045C86.7813 18.1667 86.3684 18.7955 86.0881 19.5909C85.8153 20.3864 85.679 21.2917 85.679 22.3068C85.679 23.322 85.8153 24.2273 86.0881 25.0227C86.3684 25.8182 86.7813 26.447 87.3267 26.9091C87.8797 27.3636 88.5616 27.5909 89.3722 27.5909ZM101.088 31V13.5455H105.702V16.625H105.906C106.27 15.6023 106.876 14.7955 107.724 14.2045C108.573 13.6136 109.588 13.3182 110.77 13.3182C111.967 13.3182 112.986 13.6174 113.827 14.2159C114.668 14.8068 115.228 15.6098 115.509 16.625H115.69C116.046 15.625 116.69 14.8258 117.622 14.2273C118.562 13.6212 119.671 13.3182 120.952 13.3182C122.58 13.3182 123.902 13.8371 124.918 14.875C125.94 15.9053 126.452 17.3674 126.452 19.2614V31H121.622V20.2159C121.622 19.2462 121.365 18.5189 120.849 18.0341C120.334 17.5492 119.69 17.3068 118.918 17.3068C118.039 17.3068 117.353 17.5871 116.861 18.1477C116.368 18.7008 116.122 19.4318 116.122 20.3409V31H111.429V20.1136C111.429 19.2576 111.183 18.5758 110.69 18.0682C110.205 17.5606 109.565 17.3068 108.77 17.3068C108.232 17.3068 107.747 17.4432 107.315 17.7159C106.891 17.9811 106.554 18.3561 106.304 18.8409C106.054 19.3182 105.929 19.8788 105.929 20.5227V31H101.088ZM135.116 20.9091V31H130.276V13.5455H134.889V16.625H135.094C135.48 15.6098 136.128 14.8068 137.037 14.2159C137.946 13.6174 139.048 13.3182 140.344 13.3182C141.556 13.3182 142.613 13.5833 143.514 14.1136C144.416 14.6439 145.116 15.4015 145.616 16.3864C146.116 17.3636 146.366 18.5303 146.366 19.8864V31H141.526V20.75C141.533 19.6818 141.26 18.8485 140.707 18.25C140.154 17.6439 139.393 17.3409 138.423 17.3409C137.772 17.3409 137.196 17.4811 136.696 17.7614C136.204 18.0417 135.817 18.4508 135.537 18.9886C135.264 19.5189 135.124 20.1591 135.116 20.9091ZM150.182 31V13.5455H155.023V31H150.182ZM152.614 11.2955C151.894 11.2955 151.277 11.0568 150.761 10.5795C150.254 10.0947 150 9.51515 150 8.84091C150 8.17424 150.254 7.60227 150.761 7.125C151.277 6.64015 151.894 6.39773 152.614 6.39773C153.333 6.39773 153.947 6.64015 154.455 7.125C154.97 7.60227 155.227 8.17424 155.227 8.84091C155.227 9.51515 154.97 10.0947 154.455 10.5795C153.947 11.0568 153.333 11.2955 152.614 11.2955Z" fill="white"/>
<rect x="2.70605" y="5" width="34.5882" height="26.1176" fill="#FFF0B6"/>
<path d="M36 5.17676H4C2.89543 5.17676 2 6.07971 2 7.19356V31.3952C2 32.5091 2.89543 33.4121 4 33.4121H36C37.1046 33.4121 38 32.5091 38 31.3952V7.19356C38 6.07971 37.1046 5.17676 36 5.17676Z" fill="#FFF0B6" stroke="#598560" stroke-width="4" stroke-linecap="round" stroke-linejoin="round"/>
<path d="M37.2398 5.62045L21.2398 18.3062C20.8867 18.5875 20.4498 18.7406 19.9998 18.7406C19.5497 18.7406 19.1129 18.5875 18.7598 18.3062L2.75977 5.62045C3.11164 5.33576 3.54864 5.1794 3.99977 5.17676H35.9998C36.4509 5.1794 36.8879 5.33576 37.2398 5.62045Z" fill="#FFF0B6" stroke="#598560" stroke-width="4" stroke-linecap="round" stroke-linejoin="round"/>
</svg>
