<svg width="27" height="24" viewBox="0 0 27 24" fill="none" xmlns="http://www.w3.org/2000/svg">
<path d="M8.71687 17.4036L9.09924 16.4411L8.12398 16.0927C4.18855 14.6866 1.79004 11.9236 1.79004 9C1.79004 6.9233 2.97494 4.94743 5.08649 3.45081C7.19581 1.95578 10.1621 1 13.4857 1C16.8093 1 19.7756 1.95578 21.8849 3.45081C23.9964 4.94743 25.1813 6.9233 25.1813 9C25.1813 11.0767 23.9964 13.0526 21.8849 14.5492C19.7756 16.0442 16.8093 17 13.4857 17C13.3917 17 13.3375 16.9969 13.2674 16.9929C13.2057 16.9893 13.1317 16.9851 13.0076 16.9816L12.6567 16.9719L12.3767 17.1836L7.27027 21.0449L8.71687 17.4036Z" fill="white" stroke="black" stroke-width="2"/>
</svg>
