<svg width="24" height="24" viewBox="0 0 24 24" fill="none" xmlns="http://www.w3.org/2000/svg">
<path d="M15.5382 8.5176C15.4368 8.3856 15.2496 8.3616 15.1176 8.4618L7.2 13.2C7.2 13.2 8.4636 16.7352 8.6562 17.3472C8.8494 17.9598 9.0042 17.9742 9.0042 17.9742L9.5826 14.3952L15.4818 8.9376C15.6138 8.8374 15.6384 8.6496 15.5382 8.5176Z" fill="#CFD8DC"/>
<path d="M12 0C8.8174 0 5.76516 1.26428 3.51472 3.51472C1.26428 5.76516 0 8.8174 0 12C0 15.1826 1.26428 18.2348 3.51472 20.4853C5.76516 22.7357 8.8174 24 12 24C15.1826 24 18.2348 22.7357 20.4853 20.4853C22.7357 18.2348 24 15.1826 24 12C24 8.8174 22.7357 5.76516 20.4853 3.51472C18.2348 1.26428 15.1826 0 12 0Z" fill="#29B6F6"/>
<path d="M17.97 6.6L15.7224 18.0756C15.7224 18.0756 15.6258 18.6 14.9754 18.6C14.6298 18.6 14.4516 18.4356 14.4516 18.4356L9.5832 14.3958L7.2012 13.1952L4.1442 12.3822C4.1442 12.3822 3.6 12.225 3.6 11.775C3.6 11.4 4.1598 11.2212 4.1598 11.2212L16.9494 6.1404C16.9494 6.1404 17.34 5.9994 17.625 6C17.8002 6 18 6.075 18 6.3C18 6.45 17.97 6.6 17.97 6.6Z" fill="white"/>
<path d="M11.4 15.903L9.3444 17.9274C9.3444 17.9274 9.255 17.9964 9.1356 17.9994C9.0942 18.0006 9.0498 17.9946 9.0042 17.9742L9.5826 14.3946L11.4 15.903Z" fill="#B0BEC5"/>
</svg>
