<svg width="25" height="24" viewBox="0 0 25 24" fill="none" xmlns="http://www.w3.org/2000/svg">
<path d="M24.8945 20.6667C24.8945 22.508 23.4025 24 21.5612 24H4.22786C2.3872 24 0.894531 22.508 0.894531 20.6667V3.33333C0.894531 1.492 2.3872 0 4.22786 0H21.5612C23.4025 0 24.8945 1.492 24.8945 3.33333V20.6667Z" fill="#1976D2"/>
<path d="M20.8525 8.02733C20.8832 7.92667 20.8979 7.83333 20.8939 7.75C20.8839 7.50867 20.7179 7.33333 20.3272 7.33333H18.5819C18.1412 7.33333 17.9379 7.6 17.8192 7.86733C17.8192 7.86733 16.7312 10.1067 15.4772 11.5833C15.0705 12.0107 14.8639 12 14.6439 12C14.5259 12 14.2279 11.8573 14.2279 11.466V8.00933C14.2279 7.54667 14.1125 7.33333 13.7399 7.33333H10.6405C10.3692 7.33333 10.2279 7.54667 10.2279 7.76067C10.2279 8.20533 10.8265 8.312 10.8945 9.558V11.9733C10.8945 12.56 10.7925 12.6667 10.5725 12.6667C9.9792 12.6667 8.8112 10.6667 8.0292 8.04533C7.85986 7.52933 7.69053 7.33333 7.24986 7.33333H5.48786C4.9792 7.33333 4.89453 7.58267 4.89453 7.84933C4.89453 8.33 5.29453 10.9287 7.47786 13.9167C9.0612 16.0833 11.1472 17.3333 12.9939 17.3333C14.1125 17.3333 14.2272 17.0487 14.2272 16.604V14.6227C14.2279 14.0887 14.3499 14 14.7059 14C14.9599 14 15.4779 14.1667 16.4779 15.3333C17.6312 16.6787 17.8405 17.3333 18.5019 17.3333H20.2472C20.6525 17.3333 20.8852 17.1633 20.8945 16.8333C20.8965 16.7493 20.8845 16.6553 20.8572 16.5507C20.7279 16.1667 20.1345 15.228 19.3945 14.3333C18.9845 13.838 18.5799 13.3473 18.3939 13.0807C18.2692 12.9067 18.2219 12.784 18.2279 12.6667C18.2339 12.5433 18.2979 12.426 18.3939 12.262C18.3765 12.262 20.6325 9.09467 20.8525 8.02733Z" fill="white"/>
</svg>
