<svg width="24" height="24" viewBox="0 0 24 24" fill="none" xmlns="http://www.w3.org/2000/svg">
<path fill-rule="evenodd" clip-rule="evenodd" d="M0.671891 23.4039L2.2761 17.5474C1.28642 15.8337 0.765976 13.8888 0.766572 11.897C0.769549 5.66534 5.84061 0.595474 12.0728 0.595474C15.0973 0.596665 17.9353 1.77392 20.0701 3.90988C22.2042 6.04645 23.3797 8.88567 23.3785 11.9059C23.3761 18.1376 18.3039 23.208 12.0728 23.208H12.0681C10.1763 23.2074 8.31659 22.7328 6.66534 21.8319L0.671891 23.4039Z" fill="white"/>
<path fill-rule="evenodd" clip-rule="evenodd" d="M0.671891 23.7017C0.593289 23.7017 0.517068 23.6707 0.460498 23.6135C0.386064 23.5379 0.356886 23.4277 0.384873 23.3259L1.95633 17.5879C0.982134 15.8575 0.468239 13.8924 0.46943 11.8976C0.471812 5.50099 5.67685 0.297737 12.0728 0.297737C15.1753 0.298928 18.0901 1.50715 20.2809 3.69968C22.4716 5.89281 23.6774 8.80707 23.6763 11.9059C23.6739 18.3019 18.4682 23.5058 12.0728 23.5058C10.1739 23.5052 8.29515 23.0365 6.62783 22.1499L0.747517 23.6915C0.722507 23.6987 0.697497 23.7017 0.671891 23.7017Z" fill="white"/>
<path fill-rule="evenodd" clip-rule="evenodd" d="M12.0728 0.595474C15.0973 0.596665 17.9353 1.77392 20.0701 3.90988C22.2042 6.04645 23.3797 8.88567 23.3785 11.9059C23.3761 18.1376 18.3039 23.208 12.0728 23.208H12.0681C10.1763 23.2074 8.31659 22.7328 6.66534 21.8319L0.671891 23.4039L2.2761 17.5474C1.28642 15.8337 0.765976 13.8888 0.766572 11.897C0.769549 5.66534 5.84061 0.595474 12.0728 0.595474ZM12.0728 0C5.5131 0 0.174075 5.33664 0.171097 11.897C0.170502 13.9019 0.676655 15.8777 1.63656 17.6266L0.0972585 23.2473C0.0412839 23.4528 0.0984494 23.6719 0.248509 23.8231C0.361649 23.9375 0.514686 24 0.671891 24C0.722507 24 0.773122 23.9934 0.823142 23.9803L6.5915 22.4678C8.2755 23.342 10.1632 23.8035 12.0681 23.8041C18.6326 23.8041 23.9716 18.4669 23.9746 11.9065C23.9758 8.72727 22.739 5.73799 20.4923 3.48948C18.2443 1.24037 15.2545 0.00119095 12.0728 0Z" fill="#CFD8DC"/>
<path fill-rule="evenodd" clip-rule="evenodd" d="M18.7195 5.25923C16.945 3.48352 14.5863 2.50516 12.0758 2.50457C6.89281 2.50457 2.67745 6.71814 2.67507 11.8976C2.67447 13.6727 3.1711 15.4008 4.11195 16.8972L4.33584 17.2527L3.38606 20.7189L6.94283 19.7864L7.28642 19.9901C8.72866 20.8464 10.3829 21.2989 12.0693 21.2995H12.0728C17.2523 21.2995 21.4676 17.0854 21.4694 11.9053C21.47 9.39539 20.494 7.03493 18.7195 5.25923Z" fill="#40C351"/>
<path fill-rule="evenodd" clip-rule="evenodd" d="M9.24672 7.17249C9.03533 6.70206 8.81262 6.69254 8.61076 6.6842C8.44581 6.67705 8.25764 6.67765 8.06947 6.67765C7.8813 6.67765 7.57523 6.74851 7.31619 7.03136C7.05716 7.31421 6.32711 7.99722 6.32711 9.38706C6.32711 10.7769 7.33942 12.1203 7.48055 12.3085C7.62167 12.4966 9.43489 15.4401 12.3063 16.5726C14.6923 17.5135 15.1782 17.3265 15.6963 17.2795C16.2144 17.2324 17.3678 16.5965 17.603 15.9367C17.8382 15.2769 17.8382 14.7118 17.768 14.5939C17.6971 14.476 17.5089 14.4057 17.2267 14.264C16.9444 14.1223 15.5552 13.4393 15.2961 13.3452C15.0371 13.2511 14.8489 13.204 14.6602 13.4869C14.472 13.7692 13.9307 14.4057 13.7658 14.5939C13.6008 14.7827 13.4359 14.8065 13.1536 14.6647C12.8714 14.523 11.9615 14.2253 10.8819 13.263C10.0423 12.5145 9.47538 11.5897 9.31044 11.3069C9.14549 11.0246 9.29257 10.8716 9.4343 10.7304C9.56113 10.6036 9.71655 10.4006 9.85827 10.2356C9.9994 10.0707 10.0464 9.95276 10.1405 9.76459C10.2346 9.57582 10.1876 9.41088 10.1167 9.26975C10.047 9.12803 9.49801 7.73104 9.24672 7.17249Z" fill="white"/>
</svg>
